<svg t="1644567794735" class="icon" viewBox="0 0 1024 1024" version="1.1" xmlns="http://www.w3.org/2000/svg" p-id="5079" xmlns:xlink="http://www.w3.org/1999/xlink" width="128" height="128"><defs><style type="text/css"></style></defs><path d="M512 12.047059a439.717647 439.717647 0 0 0-439.717647 439.717647V783.058824a48.188235 48.188235 0 0 0 48.188235 48.188235h783.058824a48.188235 48.188235 0 0 0 48.188235-48.188235V451.764706A439.717647 439.717647 0 0 0 512 12.047059z m13.191529 96.617412A343.341176 343.341176 0 0 1 855.341176 451.764706v283.105882H168.658824V451.764706a343.341176 343.341176 0 0 1 343.341176-343.341177l13.191529 0.240942zM963.764706 885.458824a48.188235 48.188235 0 0 1 6.023529 96.015058l-6.023529 0.361412H60.235294a48.188235 48.188235 0 0 1-6.023529-96.015059L60.235294 885.458824h903.529412z" p-id="5080"></path><path d="M508.385882 207.450353A48.188235 48.188235 0 0 1 581.029647 270.456471l-4.698353 5.421176L478.147765 373.458824H662.588235a48.188235 48.188235 0 0 1 38.369883 77.402352l-4.156236 4.698353-180.103529 181.850353a48.188235 48.188235 0 0 1-73.065412-62.403764l4.638118-5.421177L546.936471 469.835294H361.411765c-40.839529 0-62.283294-46.983529-38.189177-77.703529l4.216471-4.638118L508.385882 207.450353z" p-id="5081"></path></svg>