<?xml version="1.0" standalone="no"?><!DOCTYPE svg PUBLIC "-//W3C//DTD SVG 1.1//EN" "http://www.w3.org/Graphics/SVG/1.1/DTD/svg11.dtd"><svg t="1644568625245" class="icon" viewBox="0 0 1025 1024" version="1.1" xmlns="http://www.w3.org/2000/svg" p-id="15570" xmlns:xlink="http://www.w3.org/1999/xlink" width="128.125" height="128"><defs><style type="text/css"></style></defs><path d="M960.414843 383.50444c-17.687673 0-32.002367-14.314694-32.002367-32.00339l0-80.828694c0-44.131173-35.949448-80.014103-80.143046-80.014103l-671.999552 0c-44.138337 0-80.014103 20.694291-80.014103 64.824441 0 17.689719-14.31674 32.004413-32.00646 32.004413-17.694836 0-32.011577-14.314694-32.011577-32.004413 0-79.386786 64.639213-128.02584 144.03214-128.02584l671.999552 0c79.516752 0 144.148802 63.764245 144.148802 143.215502l0 80.828694C992.418233 369.188723 978.103539 383.50444 960.414843 383.50444z" p-id="15571"></path><path d="M967.91706 447.519407c-63.075526 0-228.103847 0-241.797364 0-17.003048 0-113.081782-128.02584-138.89899-128.02584-25.567508 0-434.955674 0-434.955674 0-66.329796 0-120.028318 53.75583-120.028318 120.022178l0 336.126161c0 66.265325 53.698522 119.95873 120.028318 119.95873l720.009242 0c66.32775 0 120.142934-53.693405 120.142934-119.95873 0 0 0-274.992962 0-291.366647C992.418233 468.149226 983.041228 447.519407 967.91706 447.519407zM448.322741 511.531303l-192.04183 0c-17.689719 0-32.001343-14.31674-32.001343-32.00953 0-17.688696 14.3106-32.001343 32.001343-32.001343l192.04183 0c17.689719 0 32.001343 14.312647 32.001343 32.001343C480.324084 497.214563 466.01246 511.531303 448.322741 511.531303z" p-id="15572"></path></svg>