<?xml version="1.0" standalone="no"?><!DOCTYPE svg PUBLIC "-//W3C//DTD SVG 1.1//EN" "http://www.w3.org/Graphics/SVG/1.1/DTD/svg11.dtd"><svg t="1641885411853" class="icon" viewBox="0 0 1024 1024" version="1.1" xmlns="http://www.w3.org/2000/svg" p-id="21742" xmlns:xlink="http://www.w3.org/1999/xlink" width="128" height="128"><defs><style type="text/css"></style></defs><path d="M512 257.728c133.632 0 251.2-17.152 320-43.072l0 203.328c0 17.728 14.336 32.064 32 32.064S896 435.776 896 417.984L896 161.6c0-53.12-171.968-96.192-384-96.192S128 108.48 128 161.6c0 0 0 624.448 0 638.336 0 84.416 177.856 113.024 283.904 122.432 1.024 0.128 1.92 0.128 2.88 0.128 16.448 0 30.4-12.48 31.872-29.184 1.536-17.6-11.456-33.216-29.056-34.752C263.616 844.8 197.888 810.88 192 799.936c0-50.432 0-586.752 0-585.28C260.736 240.64 378.304 257.728 512 257.728zM512 129.536c129.216 0 223.872 15.872 277.952 32.064-54.08 16.128-148.736 32-277.952 32s-223.872-15.872-278.016-32C288.128 145.408 382.784 129.536 512 129.536zM896.32 639.872l0-64c0-35.392-28.608-64-64-64l-192 0c-35.392 0-64 28.608-64 64l0 64c-35.392 0-64 28.608-64 64l0 192c0 35.392 28.608 64 64 64l320 0c35.392 0 64-28.608 64-64l0-192C960.32 668.48 931.712 639.872 896.32 639.872zM832.32 639.872l-192 0 0-64 192 0L832.32 639.872z" p-id="21743"></path></svg>