<?xml version="1.0" standalone="no"?><!DOCTYPE svg PUBLIC "-//W3C//DTD SVG 1.1//EN" "http://www.w3.org/Graphics/SVG/1.1/DTD/svg11.dtd"><svg t="1644568989098" class="icon" viewBox="0 0 1024 1024" version="1.1" xmlns="http://www.w3.org/2000/svg" p-id="27914" xmlns:xlink="http://www.w3.org/1999/xlink" width="128" height="128"><defs><style type="text/css"></style></defs><path d="M477.866667 279.04V34.133333H260.096c-32.426667 0-63.146667 17.237333-80.042667 44.714667L57.344 279.04H477.866667zM546.133333 279.04h420.522667L843.946667 79.018667A94.464 94.464 0 0 0 763.904 34.133333H546.133333v244.906667zM34.133333 347.306667V921.6c0 37.717333 30.549333 68.266667 68.266667 68.266667h819.2c37.717333 0 68.266667-30.549333 68.266667-68.266667V347.306667H34.133333z m330.581334 347.818666H221.866667c-18.773333 0-34.133333-15.36-34.133334-34.133333s15.36-34.133333 34.133334-34.133333h142.848a34.133333 34.133333 0 1 1 0 68.266666z m100.010666-165.034666H221.866667c-18.773333 0-34.133333-15.36-34.133334-34.133334s15.36-34.133333 34.133334-34.133333h242.858666a34.133333 34.133333 0 1 1 0 68.266667z m387.242667 225.450666l-113.834667 118.613334c-6.656 6.997333-15.701333 10.410667-24.576 10.410666-8.533333 0-17.066667-3.072-23.722666-9.557333-13.653333-12.970667-13.994667-34.645333-1.024-48.298667l59.221333-61.610666H548.693333c-18.773333 0-34.133333-15.36-34.133333-34.133334s15.36-34.133333 34.133333-34.133333h199.509334l-59.392-61.781333c-13.141333-13.653333-12.629333-35.157333 1.024-48.298667 13.482667-12.970667 35.157333-12.629333 48.298666 1.024l114.688 119.466667c1.365333 1.365333 2.389333 2.901333 3.413334 4.266666l0.341333 0.341334c1.024 1.536 1.877333 3.242667 2.56 4.949333l0.512 1.024c0.682667 1.706667 1.194667 3.413333 1.536 5.12 0.170667 0.512 0.341333 0.853333 0.341333 1.365333 0.512 2.218667 0.682667 4.437333 0.682667 6.656 0 0.682667-0.170667 1.194667-0.170667 1.877334-0.170667 1.536-0.170667 3.072-0.512 4.608-0.341333 1.536-0.682667 2.901333-1.194666 4.266666-0.170667 0.682667-0.341333 1.365333-0.682667 1.877334-0.682667 1.706667-1.536 3.242667-2.389333 4.608l-0.512 1.024c-1.365333 2.389333-2.901333 4.437333-4.778667 6.314666z" p-id="27915"></path></svg>