<?xml version="1.0" standalone="no"?><!DOCTYPE svg PUBLIC "-//W3C//DTD SVG 1.1//EN" "http://www.w3.org/Graphics/SVG/1.1/DTD/svg11.dtd"><svg t="1641885235594" class="icon" viewBox="0 0 1078 1024" version="1.1" xmlns="http://www.w3.org/2000/svg" p-id="15940" xmlns:xlink="http://www.w3.org/1999/xlink" width="134.75" height="128"><defs><style type="text/css"></style></defs><path d="M951.113093 544.583205a64.431664 64.431664 0 0 1 64.318626 64.32993v287.715639a64.431664 64.431664 0 0 1-64.318626 64.318626H127.371226a64.431664 64.431664 0 0 1-64.318626-64.318626V608.913135a64.431664 64.431664 0 0 1 64.318626-64.32993h138.279394a22.946715 22.946715 0 0 1 21.285057 14.547992c56.846814 141.297509 148.758017 219.101569 258.857035 219.101569s201.79545-77.792756 258.427491-219.04505a22.924108 22.924108 0 0 1 21.296361-14.604511h125.596529m0-63.041296H825.516564a86.055835 86.055835 0 0 0-79.827441 54.190421C718.017419 604.753336 656.456921 715.180165 545.747497 715.180165s-172.552517-110.562474-200.325956-179.583481A86.033227 86.033227 0 0 0 265.65062 481.541909H127.371226A127.371226 127.371226 0 0 0 0 608.913135v287.715639a127.371226 127.371226 0 0 0 127.371226 127.371226h823.741867a127.371226 127.371226 0 0 0 127.371226-127.371226V608.913135A127.371226 127.371226 0 0 0 951.113093 481.541909z" p-id="15941"></path><path d="M541.282496 590.680105a31.514996 31.514996 0 0 1-31.5263-31.5263V31.5263a31.5263 31.5263 0 0 1 63.0526 0v527.582289a31.5263 31.5263 0 0 1-31.5263 31.571516z" p-id="15942"></path><path d="M727.908245 423.270817L574.685227 576.493835a50.867103 50.867103 0 0 1-71.948692 0l-148.079789-148.079789c-20.346841-20.346841-6.239698-55.015598 22.460652-55.456446l327.324157-5.120622c29.17511-0.463456 44.10743 34.804402 23.46669 55.433839z" p-id="15943"></path></svg>