<svg t="1641870243344" class="icon" viewBox="0 0 1024 1024" version="1.1" xmlns="http://www.w3.org/2000/svg" p-id="4377" xmlns:xlink="http://www.w3.org/1999/xlink" width="128" height="128"><defs><style type="text/css"></style></defs><path d="M352 768h32.32c17.472 0 31.68 14.208 31.68 32a32 32 0 0 1-31.68 32H255.68A31.776 31.776 0 0 1 224 800a32 32 0 0 1 31.68-32H288V256H128v31.68a32 32 0 1 1-64 0V224.32a32 32 0 0 1 9.44-22.912A31.488 31.488 0 0 1 96 192h447.936A31.84 31.84 0 0 1 576 224v63.68a32 32 0 1 1-64 0V256h-160v512z m448 0h32.32c17.472 0 31.68 14.208 31.68 32a32 32 0 0 1-31.68 32h-128.64a31.776 31.776 0 0 1-31.68-32 32 32 0 0 1 31.68-32H736v-256h-96v31.68a32 32 0 1 1-64 0v-63.36a32 32 0 0 1 9.44-22.912A31.488 31.488 0 0 1 608 448h319.936A31.84 31.84 0 0 1 960 480v63.68a32 32 0 1 1-64 0V512h-96v256z" fill="#000000" p-id="4378"></path></svg>