<?xml version="1.0" standalone="no"?><!DOCTYPE svg PUBLIC "-//W3C//DTD SVG 1.1//EN" "http://www.w3.org/Graphics/SVG/1.1/DTD/svg11.dtd"><svg t="1646637066347" class="icon" viewBox="0 0 1024 1024" version="1.1" xmlns="http://www.w3.org/2000/svg" p-id="6470" xmlns:xlink="http://www.w3.org/1999/xlink" width="200" height="200"><defs><style type="text/css"></style></defs><path d="M 852 724.5 c -1.8 0 -4.1 1.4 -5.6 1.4 c -1.4 1.9 -3.2 2.4 -5.1 2.8 c -0.8 3.6 -4.7 4.1 -5.7 6.5 c -0.4 2.3 -0.4 4.9 -1.3 5.9 l -2.8 1.5 c -1.6 2.3 -1.2 5.4 -1.2 7.2 c -3.2 5.4 -5.2 11.4 -5.9 17.6 c 1.3 1 1.3 2.8 1.8 4.2 c 0.4 3.6 -1.8 7.4 -2.2 10.5 l 3.7 3.8 c 0.8 1.4 0.5 3.6 2.2 3.6 c 0.4 1.9 1.5 2.8 1.5 4.3 c 1.9 0.9 3.7 0.4 5.1 1.4 l 0.8 0.9 v 1.7 c 3.9 1.5 1.4 5.7 4.4 6.1 c 1.8 0.5 2.7 -0.9 4.1 -0.4 c 2.5 -1 3 -2.9 3.4 -5.3 c 0.5 -3.6 -0.4 -7.3 1 -10.4 c 4.9 -5.7 2.7 -14 6.1 -19.9 c 0.5 -13.2 3.6 -27.7 0.5 -39.5 c -3 -0.5 -3.4 -2.5 -4.8 -3.9 Z m 106.9 -531.2 l -2.8 -2.5 h -1.3 l -2.6 1.9 h -2.7 c -3.2 2.8 -7.5 5.4 -9.7 8.7 c -3.5 1 -5.7 1.4 -7.5 4 c 0.4 2.9 -1.9 3.8 -1.9 5.7 c -3.4 1 -3.4 4 -5.6 5.9 c -5.3 1.4 -8.9 3.8 -13.7 3.8 c -1.8 -1.4 -3.6 -3.8 -5.4 -4.3 l -1.6 -0.5 l -0.5 -2.8 c -0.8 -2.6 -1.3 -4 -2.2 -5.4 c -1.8 -1 -2.2 -1.9 -2.7 -3.4 c -2.9 -1.6 -4.8 -3.9 -6.2 -5.9 c -2.3 -1.4 -5.3 -0.9 -7 -0.9 c -2.2 -2.2 -4.6 -3.2 -7.1 -5 c -6.3 -0.5 -13.8 0.4 -19.5 -1.5 l -2.2 -2.4 c -0.5 -1.6 -1.6 -3.5 -2.5 -3.5 c -1 -4.3 -2.3 -7.8 -2.8 -11.6 c -1.8 -0.4 -1.8 -2.9 -2.2 -4.1 c -2 -0.4 -2.9 -1.3 -4.4 -1.3 c -1.3 -1.9 -2.7 -3.7 -3.7 -5.7 c -0.5 -2.9 -2.3 -5.4 -4.7 -6.8 c -1.8 -1.4 -1.3 -5 -2.7 -5.9 l -1.4 -1 c -2 -1.4 -1.6 -4 -2 -5.9 c -3.6 -2.3 -4.5 -5.2 -6.7 -7.3 c -1.6 -0.9 -1.6 -3.8 -2.6 -4.3 c -1.3 -1.9 -4.5 -1.4 -5.4 -3.6 c -2.9 0.7 -4.7 -0.5 -7.1 0.7 c -1.3 1.4 -2.4 2.4 -3.8 2.4 c -2.5 -2.2 -5.6 -3.8 -8.8 -4.5 c -3.1 -0.4 -5.7 0.5 -8.5 -0.9 c -2.6 1.4 -6 0.9 -8.3 0.9 c -2.7 0.5 -3.6 2.1 -5.7 2.1 c -2.7 0.4 -3.1 2.8 -5.4 2.8 c -2.8 0 -5.7 0.4 -8.3 1.4 l -1 1 l -0.6 1.4 l -2.7 0.4 c -1.4 1.2 -1.4 3.1 -1.9 4.1 c -1.3 1.4 -2.2 2.3 -3.8 2.3 l -3.7 0.5 c -1.3 1.9 -2.2 3.9 -3.6 5.4 v 2.7 l 3.1 4.1 c 2.8 0 4.8 0.5 7 0.5 l 1 0.9 c 0.9 3.3 -0.4 5.9 0.4 8.8 l -1.4 2.9 c -0.8 1 -2.9 3 -3.4 3.6 c 0 2.3 0 4.7 -1.3 5.7 l -1.4 1 c -2.2 4.1 -3.1 8.8 -5.2 11.8 c -0.9 4.3 0 7.8 -1.8 11.6 c -3.2 3.6 -6.6 6.3 -8.8 9.7 c -1 1.5 -2.8 1.5 -4.2 2.1 c -6.1 0 -11.3 -0.6 -16.7 0 l -1.2 1 c -1.8 4.2 -4.9 7.3 -5.4 12.1 l -1.4 1 c -1.2 4.5 -3 7.3 -3.4 11.8 l -1.4 1.4 c -0.9 5.2 -2.2 11.2 -2.2 16.2 c 0.4 2.4 1.8 2.8 2.2 4.2 l 0.9 1 l 2.8 2.1 c 2.4 0 4.9 -0.6 7 -1.7 l 3.8 -2.8 h 5.5 l 2.5 1.9 c 1.9 1.4 3.6 0.9 5 1.4 c 2.5 -1.4 3.5 -3.8 6.2 -3.8 l 1.8 -2.9 c 2 -1.6 5.3 -2.1 7 -1.1 l 1.4 3.1 l 2.9 1.4 c 1.9 2.4 3.2 5 5.5 5.5 c 1.5 1.4 1.5 3.2 3.3 3.2 c 1 1.9 2.4 2.5 2.4 4.5 l -1.8 1.9 c -5.3 -0.4 -9.8 1 -14.1 1 l -3.2 2.3 h -7 c -4.4 3.1 -6.2 7.4 -9.8 9.3 h -4.3 c -1.5 0.4 -2.8 1.3 -3.7 2.6 l -0.5 0.9 c 0 4.3 -2 6.6 -2.5 10.2 c -2.2 1.5 -4.6 2.8 -7.1 2.8 l -1.8 1.9 c -2.7 1.2 -4.5 1.2 -7.1 2.1 c -3.1 3.8 -5.4 5.7 -8.3 8.3 l -2.8 1.4 l -0.9 1.5 c -1.8 0.9 -2.2 2.3 -4.3 2.3 c -8.8 2.6 -16.9 -2.8 -25.3 -1.4 c -2.7 0.9 -4 1.9 -5.4 2.8 c -0.5 2.6 -2 2.6 -3.4 3.1 c -0.5 4.2 0 7.7 -0.5 11.6 c 1.4 4.4 4.4 7.3 5.8 10.1 l 2.2 2.6 v 1.5 c -0.5 1.4 -1.7 2.5 -3.1 2.9 c -1.4 1.8 -1.4 4.4 -2.9 5.8 c -1.9 0.5 -2.8 0.5 -4.1 0.5 c -2.6 2.1 -4.9 4.4 -7 6.9 c -1 2.3 -1.3 4.2 -2.8 5.2 c -5.7 1.2 -10 1.7 -18 1.2 c -4.1 1 -8.8 1 -12.4 1 c -6.6 1.9 -14.1 2.4 -21.2 4.7 l -2.3 2.4 c -2.7 0.7 -4.7 1.2 -7 1.6 l -1.8 2.4 c -1.8 0.5 -2.7 1 -4.4 1 c -3.9 3.3 -8.4 5.8 -13.3 7.3 c -3 -0.5 -3.5 -2.3 -5.3 -2.8 c -6.1 -0.5 -11.2 0.4 -16.8 -0.5 c -1.9 -3 -5.3 -4.4 -6.1 -7.3 c -4.1 -2.6 -7.5 -1 -11.2 -2.6 c -0.4 -1.9 -1.3 -2.8 -1.3 -4.3 c -1.9 -1.5 -3.8 -2.4 -5.8 -4.1 h -5.6 c -2.7 -0.4 -3.1 -2.3 -5 -2.8 c -11.3 0 -21.2 -2.3 -32.2 -1.8 l -2.5 -1.9 c -6.8 -1.7 -12.9 -3.1 -19.5 -3.1 c -2.7 -0.5 -2.7 -2.8 -5.2 -2.4 c -2.3 -0.8 -3.7 -2.3 -5 -2.8 c -0.5 -2.6 -2.3 -2.6 -2.3 -4.1 V 351 c -1.6 -1.4 -2.1 -3 -2.9 -4 c 0.4 -2.8 -1.9 -3.8 -1.4 -5.7 l -2.8 -4 c -0.4 -3.4 0 -7.9 -1.6 -10.2 c -0.8 -1.4 -2.8 -1.4 -4 -1.9 H 411 c -3 -1.4 -3 -5.4 -5.8 -5.9 c -0.4 -2 -1.3 -4.3 -1.3 -6 c -4.7 -1.9 -7 -6.1 -11.1 -7.1 h -3 c -4.5 -3.9 -11.1 -4.4 -16.9 -5.9 l -2.2 -1.9 c -4 0 -8 -1.2 -11.3 -3.5 c -0.8 -3.8 -1 -7.7 -0.4 -11.6 c 3.8 -3.6 4.4 -8.3 5.6 -12.3 c -2.8 -5.2 -0.5 -11.6 -3.6 -16.1 l -1.6 -1 c -1.3 -4.2 -0.9 -9.2 -1.3 -12.9 c -1.4 -1 -1.4 -3 -1.9 -4 c -2.7 -0.4 -3.1 -3.2 -5.3 -4.3 c -1.7 -0.5 -2.7 1 -4 0.5 c -2.8 -0.9 -4.4 -1.9 -5.8 -2.8 c -0.9 -2.6 -2.3 -4 -4 -4.5 c -1.4 -2.4 -3 -3.8 -4.8 -5 c -2.3 -6.1 0.4 -13.4 -1.8 -18.4 c -6.6 -2.9 -14.6 0.4 -21.2 2.1 c -1.9 1.4 -1.9 2.9 -3.1 4.3 l -0.5 1.5 c -1.4 1.9 -3 2.4 -5.3 3 c -1.8 0.5 -4 0 -5.4 0.5 c 0 2.3 -3.3 1.8 -3.8 2.8 c -2.7 3.8 -2.2 9.3 -1.8 13 c -1.8 1.2 -1.3 5 -3 5.4 c -2.6 1.3 -5.5 2 -8.4 1.9 l -5 -1.4 h -1.3 c -3 -0.5 -3.8 -3.3 -5.6 -3.7 c -4.7 -1 -7 -4.5 -10.6 -4.5 c -2.6 1 -3 3.1 -5.3 3.6 c -1.9 1.8 -0.9 4.6 -3.2 5.1 c -1.6 2.6 -2.5 5.4 -3.4 7.4 c -1.4 0.9 -2.5 2.1 -3.2 3.6 l -0.8 2.8 l -2.6 1.9 c -1.4 4 -0.9 6.9 -1.4 10.1 l -1.3 2.1 H 223 c -5.6 -5.9 -14.1 -2.1 -20.7 -3.1 c -2.6 0.5 -2.6 3.6 -4.9 3.6 c -1.6 2.4 0.4 4.7 -2 5.6 c -0.4 11 -0.4 22.1 -0.9 32.3 l -0.9 0.8 h -1.3 c -1.8 1.3 -1.8 3.5 -3.4 3.5 l -2.8 2.5 c 0.9 5.9 -2.7 10.6 -4.5 14.6 l -2.6 1.4 c -4.5 -0.5 -8.8 1.9 -12.4 3.3 c -8.9 -1 -16.9 -3.7 -25.3 -1 c -2.5 2.9 -6.6 2.4 -9.5 2.4 c -1.8 1 -3.7 1 -4.1 2.1 l -1.3 2.9 c -3.4 1 -4.3 2.8 -7 4.2 c -2.8 -0.4 -4.7 0.4 -7 -0.4 c -0.9 -1.9 -2.8 -3.7 -4.7 -3.7 c -4.1 0.4 -7.3 -1.5 -11.2 -1.5 l -2.7 1.5 c -4.3 0.4 -7.5 -0.5 -11.3 1 c -2.8 3.3 -5.5 4.5 -8 5.9 l -0.4 1.4 c -1.8 1 -2.2 2.4 -4.1 2.4 c -1.5 3.8 -1.7 7.9 -0.5 11.8 c -1.4 2.4 -3 3.3 -4.4 4.8 L 64 365 l 0.8 3 c 1.9 0.9 2.6 2.9 3.4 3.7 c 3.7 2.1 6.3 0.5 9.8 2.1 c 1.4 1 1.4 2.9 1.9 4.3 c 0 1.9 0.4 4.5 0.4 5.9 c -0.9 3.4 -2.3 4.8 -3.2 7.4 v 5.8 l -0.9 0.9 c -3.4 1.7 -6.2 2.1 -8 4.1 c -0.5 2 -0.5 4 0 5.9 c 3.2 2.3 4.6 4.2 7.5 5.6 c 2.3 1.9 2.8 5.4 5.1 6.4 c 2.3 7.3 0 15.1 2.3 21.9 l 1.1 1 c 2.8 0.9 3.2 2.4 5.4 2.9 c 3.9 4.4 7 9.7 11.4 12.1 h 2.8 c 1.3 3.1 5.1 -0.4 5.1 3.1 c -0.2 8.2 1.7 16.2 5.4 23.4 c -1.3 3.3 -2.7 5.2 -4.1 7.6 c 0.9 6.4 2.8 13.2 2.8 21.5 l -1.4 2 c -2.7 -0.5 -3.2 -2.4 -4.8 -3.9 h -1.3 c -2.8 1 -3.7 2.3 -5.4 3.4 c -1.2 1.8 0 4.4 -1.2 5.9 c 1.2 9.2 -0.9 17.5 1.2 26.3 c 2.7 1 3.7 3.8 4.9 5.4 l 3 0.5 c 2.5 3.6 5.3 7 8.3 10.1 c 1.8 1.9 2.3 5.5 3.7 7.3 c 3 4 5.6 8.2 7.9 12.6 c 1.9 1.3 4.4 1.3 5.3 2.6 c 2.7 -0.8 3.6 -3.1 5.4 -4.5 c 2 -0.5 3 -0.5 4.3 -0.5 c 8.8 7.6 16 16.8 21.3 27.2 c 2.1 1.9 5.3 1.9 7.1 3 l 2.9 1.9 l 2.4 2.3 c 0.4 2.4 0 6 1.3 7.3 l 2.8 1.5 l 1.5 2.8 c 2.3 1.2 4.5 1.7 6.4 2.6 c 0.6 1.9 0.6 2.8 0.6 4.3 c 0.9 1.9 1.3 2.3 2.2 3.5 c 2.7 0.9 4.5 2.3 7.1 2.8 c 0.9 2.8 1.8 4.3 2.7 5.9 c 3.2 1.4 7 1.4 9.8 1.4 c 1.7 0.9 2.4 2.4 4.3 2.4 c 4.6 0.9 9.7 3.6 13.8 4.5 l 4.4 2.4 h 7 c 2.2 0.9 2.7 3.7 4.5 4.2 c 2.9 0.5 4.8 -1.3 7.1 -1.9 c 3.8 4.5 0 11.9 3.4 15.6 c 1.8 0.4 4.1 1.5 5.5 1.5 c 2 -1 3.8 -1 4.3 -1.9 c 0.9 -2.8 2.3 -4.5 2.3 -7 c 1.3 -2.3 4.3 -3.7 6.2 -5.8 h 8.3 l 2.8 2.6 c 3.4 0.9 7.5 1.4 9.9 2.8 l 1.4 2.8 l 2.8 1.7 l 1.3 2.8 c 2.1 1.1 3.8 2.9 4.8 5 c 3 1.7 5.7 3.9 8 6.6 c 0.4 3.1 -0.5 5 0.4 7.4 l 3.2 3.6 c 5.5 1.6 11.2 1.7 16.8 0.4 c 2.5 -0.4 2.9 -2.1 4.4 -2.6 h 2.7 c 2.3 -0.5 2.8 -1.9 4.4 -2.4 l 0.9 -1.4 c 4.5 -1.9 9.7 -1.4 12 -4.9 c 3 -1.5 5.3 -3.4 7 -4.7 l 2.8 -1 h 1.6 c 2.7 -0.4 3.5 -2.1 5.5 -2.1 l 3.4 -2.4 h 5.5 c 4.4 2.8 7.4 7.3 12.7 9.2 c 3.7 -0.5 8.4 1 11.2 -1.4 c 1 -2.3 3.8 -5.4 4.8 -6.8 c 1.7 0.4 2.7 0 4 0.4 c 2 5.3 4.2 10.5 6.6 15.7 l 2.9 0.9 l 1.8 2.6 c 0 2.8 1.4 4.7 0 9.7 c -0.5 3.3 -1.3 5.7 -0.9 8.7 c -0.6 2.1 -1.6 4 -3 5.7 c 0 2.7 0 5 -1.3 5.9 c -2.7 1.4 -4.5 4 -6.1 5.9 c -4.1 1.4 -5.9 5.9 -7.9 8.3 v 2.8 c -0.9 2.8 -4.1 2.4 -4.5 5 c -0.6 6.3 -0.3 12.7 0.8 18.9 l 1.9 1.4 c 5.3 1.5 11.3 -1.4 15.5 1 l 1.3 3.1 c 0 3.2 0.5 5.6 0.5 8.7 c 1.2 3.4 3.4 4.3 4.4 6.6 c 2.2 1.2 4.1 1.7 5.3 3.2 c -1.6 2.3 0.4 4.6 -2.1 5.7 c 0 3.6 -0.5 5.9 -0.5 8.7 c 0.5 2.6 1.9 3.1 2.6 4.5 c 1.3 1.4 2.6 1.8 3.6 2.8 c 1.6 0 3.1 0.6 4.4 1.6 c 0.5 2.3 1.8 2.8 2.7 3.4 c 1.3 0.9 1.3 3.8 2.2 4.3 c 1.4 1.1 2.7 2.5 3.9 3.9 c 2.3 1.5 5.1 1 6.9 1 c 3 -1 2 -4.3 4.7 -4.3 l 1 1 c 1 2.9 1.8 4.7 2.2 7.1 c 3.4 0.7 2.5 3.6 4.8 5 c 1.8 0.4 2.7 0.9 4.3 0.9 c 2.8 -0.5 3.2 -2.9 5.5 -2.3 c 4.3 -6.5 0.4 -14.7 1.3 -21.5 c 1.6 -1.9 3.9 -1.5 5.7 -1.9 c 2.2 0.5 5.2 0.5 7 0.5 l 1.3 -2.8 c 1 -1 2.7 -1.5 4.3 -1.5 c 7.1 2.8 14.4 0.4 20.9 2.8 c 2.5 -0.4 3 -1.9 4.4 -2.4 c 3.2 0 7.4 1 9.7 -1 c 1.4 -3 4.9 -4 6.2 -5.8 c 1 -2.9 4.5 -4.1 5.1 -6.5 c 4.9 3 10 5.4 15.4 7.4 c 1.8 0 4.4 -0.4 5.6 -0.4 l 1.4 0.9 c 0.8 4 -0.9 7.8 -0.4 11.1 c 0.9 2.1 0.9 4 1.8 4.5 c 2.5 3.3 5.6 5.4 7.4 8.2 c 2.3 1.4 5.3 1 7.1 1 c 3.9 1.9 6.2 3.3 9.8 4.5 c 3.3 0 5.6 0 8.5 -0.7 c 2.9 -1 2 -3.8 5.1 -3.8 c 3.3 0 6.6 0.4 9.8 1.4 c 0.9 1.9 2.8 2.4 3.8 3.5 c 2.8 0.5 4.6 0.5 6.9 1 l 0.6 1 c 0.4 1.8 0.4 4.1 0.9 5.8 l 1.4 1.5 c 0.4 3.7 2.7 5.6 2.7 8.7 c 0.9 1.9 2.8 2.9 3.8 4.3 c 1.9 1 4.1 1.4 5.4 1.9 l 0.9 1.2 l -1.3 2.5 l -2.8 0.4 c -2.2 -0.4 -2.2 -1.9 -4.3 -1.9 c -3.1 1.5 -5 2.4 -8.4 2.4 c -5.5 3.3 -9.8 7.3 -13.8 10.6 c 0.5 2.6 -2.1 3.6 -2.5 5 c -0.4 3.4 0.9 5.9 0.9 8.8 l 1.2 1 c 1.3 1.9 0.9 3.7 1.3 5.4 l 1.4 1.5 c 1.8 1.4 4 1 5.6 1.4 l 1 1.4 c 2.2 0.9 4.5 1.4 5.3 2.4 l 0.1 0.1 h 9.5 c 0.8 -1.4 3.6 -1 4 -2.8 c 2.9 -0.4 5.7 -1.6 8 -3.3 l 1.3 -3 l 2.9 -1.4 c 2.3 -3.4 0.5 -8.3 0.9 -11.6 c 2.2 -2.6 3.7 -5 5.4 -6.4 l 2.9 -1 c 0.9 -1.9 0.9 -4.5 0.9 -5.9 l -1.8 -2.3 c -6.1 -2.1 -11.4 0.5 -16.8 -2.1 v -1.3 c 0.9 -2.2 4 -1.7 4.5 -3.1 c 0 -2.8 2.3 -4.8 2.3 -7.3 c -0.9 -2.8 -1.9 -4.3 -2.7 -5.7 l -1.5 -0.9 l 1.5 -2.6 c 1.8 -0.5 2.7 -1 4.3 -1 c 2.2 -0.4 2.7 -1.8 4.2 -2.3 l 1.3 -1.4 c 2.6 -0.6 5.3 -0.8 7.9 -0.5 c 2.9 -1.6 4.4 -4.5 7 -5 c 1.6 0 3.1 -0.5 4.4 -1.4 l 1.3 -2.3 c 4.2 -1.2 9.3 0 12.5 -2.6 c 0.4 -2.4 2 -2.4 2 -4.3 c 1.2 -2 3.2 -3.3 5.4 -3.6 h 4.3 l 2.3 -1.8 c 0.9 -1.5 0.9 -3.4 1.8 -3.9 l 2.5 1 c 0.5 1.9 0 2.8 0.5 4.3 l 1.3 0.5 c 2.8 -0.4 3.7 -1.9 5.5 -2.4 l 1.5 0.9 c 4.6 -1.4 7.5 -5.9 11.2 -6.9 l 1.4 -1.4 c 3.3 -1.9 5.6 -0.5 8.3 -1 l 3.9 -3.2 c 5.5 0.4 11.1 -1 14.4 -5 h 1.5 c 2.7 -1.9 5.9 -4.3 5.9 -8.3 c 1.7 -2.8 5.7 -2.8 6.6 -5.9 h 4.4 l 0.9 -0.9 c -0.5 -2.4 -3.4 -1.4 -2.9 -3.4 l 1.2 -1 c 1.8 -0.4 2.7 -1.4 4 -1.4 c 3.9 -3 4.7 -7.3 7.9 -9.2 l 2.3 -1.7 c 0 -1.9 -0.9 -4.2 0 -5.6 l 2 -2.6 c 2.8 -0.5 4.6 0.4 6.8 -0.5 l 2.5 -1.9 c 2.2 -1.9 2.2 -6.8 4.6 -8.3 l 2.5 -1.9 c 0.9 -1.9 0 -2.9 0.9 -4.5 l 0.9 -0.9 l 1.3 -0.5 l 1 -1 c 0.9 -3.8 2.7 -5.9 3.8 -8.8 c 0 -4.3 -1.6 -7.8 -0.4 -11.6 c 1.7 -0.4 1.7 -3 1.7 -4 c 1 -1.4 2.8 -1.4 3.7 -1.9 c 1 -1.9 1 -4.4 1 -5.9 c 0.4 -2.8 2 -3.7 2 -5.6 c 0.4 -3.6 2.3 -4.5 2.3 -7.4 c 1.8 -4.5 4.5 -8.3 5.1 -13.3 c 2.8 -2.3 3.2 -5.5 5.1 -7.7 c 2.2 -1 4.3 -1.9 5.6 -2.8 l 0.9 -1.4 c 0 -4.5 -2.2 -9.7 0 -13.3 l 1.4 -4.2 c 0.4 -6.5 -1.4 -11.9 -2.3 -17.6 c -3.5 -1.9 -6.5 -4.6 -8.8 -7.7 c -3.4 -0.5 -7.1 0.9 -9.8 0 l -1.1 -1 l 1.6 -2.6 h 4.1 c 2.2 -0.5 2.7 -1.9 4.3 -2.4 c 2.7 -2.8 6.4 -4.2 8 -7.3 l -1.6 -3.4 c -2.5 -1.4 -4.7 -3.5 -6.4 -5.9 c 0 -3.3 -2 -6.4 -2.9 -8.7 l -2.8 -2.8 c -1 -3.1 -2.4 -6 -4.3 -8.7 c -2.3 -4.1 -6 -4.1 -7.9 -6.5 l -0.4 -1.4 c 0.9 -7.3 -2.3 -13.7 -2.8 -20.6 l -3.2 -3.8 c -0.4 -2.3 0 -5.9 -1.6 -7.3 l -2.7 -1.4 c -1.3 -3.1 -4.1 -1.4 -6.2 -4 c -2.6 -0.5 -6.3 0.4 -8.4 -1.4 c -0.9 -2.4 -3.6 -1.9 -3.6 -4.8 c 1.3 -2.1 1.8 -4 3.2 -4.4 c 0.4 -2.8 2.4 -3.4 3.9 -4.8 c 2.3 -5.9 6.5 -8.3 10.3 -11.4 c 0.7 -2 1.6 -3.9 2.7 -5.7 l 1.6 -1 c 1.8 -1.9 1.3 -5.2 2.2 -7.1 l 0.9 -1.2 c 2.3 -1.4 5.7 -0.5 7.1 -1.9 l 0.5 -1.4 c 6 -3 11.3 -7.3 15.4 -12.6 l -1 -3 c -2 -1 -2.5 -2.4 -4.3 -2.4 c -1.8 0.5 -2.8 0 -4 0.5 c -3.5 0 -4.9 -2.4 -7 -2.4 l -1.4 0.9 c -3 -1.4 -4.8 -2.6 -7.1 -2.6 l -2.9 -3.8 c -7 -0.4 -13 4.5 -16.9 8.7 l -2.7 0.5 c -1.9 4.1 -5.3 6.8 -7.9 9.2 c -1.9 0 -2.7 -1 -4.3 -1 l -1.4 -2.8 l 2.5 -1.4 v -6.9 c -2.3 -3.5 -5.9 -5.9 -10 -6.8 c -3.1 -0.5 -7 0.4 -9.8 -0.5 c -1.7 -2.4 -3.6 -4.1 -4.5 -6.9 c 0.9 -2.3 -1.6 -4.7 0.9 -5.9 c 0.8 -1 2.8 -1.4 4 -1.4 c 1.9 0.5 3 0.9 4.4 0.9 c 2.8 -0.5 3.7 -1.8 5.4 -1.8 c 2.1 -2.4 3.9 -3.8 5.7 -5.5 c -0.5 -2.4 1.3 -2.4 0.9 -4.2 c 2 -4.2 4.6 -8.1 7.5 -11.6 c 4.3 -1.7 7 -3.6 9.7 -5 c 0.5 -1.9 1.6 -2.9 1.6 -4.3 c 1.3 -2.1 2.8 -2.6 3.2 -4.1 c 1.3 -2.8 1.7 -5.4 4 -7.3 c 2 -0.4 3 -0.9 4.3 -0.9 c 2.8 -0.5 3.2 -2.8 5.8 -2.4 c 0.8 2.3 1.3 4.8 1.3 7.3 c -1.8 1.5 -1.3 4.7 -2.9 5.7 l -2.2 1.6 c -2.7 7.7 1.9 16.4 -1.8 23.3 l -1.9 1.9 c 0 1.6 -0.4 3.2 -1.3 4.5 c 0.9 2.9 2.2 3.3 2.8 5.4 c 4.1 0 6.1 -2.6 9.7 -3.5 c 1.3 -1.4 1.8 -2.8 2.7 -3.8 h 1.5 c 1.3 -1 1.3 -3.1 1.8 -4.1 l 2.8 -2.8 c 0.4 -1.9 1.3 -2.9 1.3 -4.5 c 2.1 -1.9 2.5 -2.9 3.4 -4.3 c 0.5 -1.9 1.4 -2.9 1.4 -4.5 c 1.8 -2.4 3.6 -2.8 5.6 -3.8 c 7 0.3 13.9 -2.1 19.1 -6.8 V 412 c 1.2 -2.8 3.4 -5.1 6.2 -6.5 c 1.3 -1.9 0 -4.7 4.1 -6.8 l 0.9 -2.8 c 0.5 -3.4 4.4 -4.3 4.4 -7.4 v -1.4 c 0.5 -2.3 1.8 -2.8 2.2 -4.3 l 2.2 -2.6 v -1.4 c 1.1 -2.8 2 -4.3 3 -5.9 c 0.9 -1.4 2.7 -1.4 4.1 -1.9 c 7 1.4 13.1 3 19.7 1.4 l 2.8 -1.9 c 0.8 -2.4 2.2 -2.9 2.2 -5.5 c -0.9 -1.9 -2.3 -2.3 -2.3 -4.3 c 3.2 -4.5 7.1 -7.9 10.3 -11.1 c 2.5 -4 3.4 -7.9 5.7 -10.4 c 1.6 0.1 3 0.7 4.3 1.7 l 0.9 2.8 c 1.8 0.5 2.8 0.5 4.1 0 l 0.9 -1 c 2.5 -4.1 1.3 -7.7 2.5 -11.8 c 2.2 -2.4 3.7 -5.2 5.4 -7.1 c -1.8 -6.9 -0.4 -14.2 -4.2 -19.2 c 0 -5.2 -3.8 -7.7 -4.8 -11.6 c 0 -1.8 -1.3 -4.4 -1.3 -5.9 c 1.3 -2.9 4.7 -3.3 6.2 -5.2 l 0.4 -3 c 5.5 -2.9 11.2 -2.5 16.8 -1.9 c 0.9 -2.4 1.4 -3.3 2.7 -3.8 c 1.4 -1.7 1.9 -4.5 2.6 -5.9 c 1.8 -15.1 -1.6 -31.2 1.8 -45.2 l 1.4 -1.2 c 1.7 -3.7 1.5 -8.1 -0.5 -11.6 c 0.9 -2.8 0 -4.7 0 -7.3 c 0.5 -1.6 1.5 -3.1 2.8 -4.2 c 0.5 -2.2 0.5 -3.1 0 -4.5 Z" p-id="6471"></path></svg>