<?xml version="1.0" standalone="no"?><!DOCTYPE svg PUBLIC "-//W3C//DTD SVG 1.1//EN" "http://www.w3.org/Graphics/SVG/1.1/DTD/svg11.dtd"><svg class="icon" width="128px" height="128.00px" viewBox="0 0 1024 1024" version="1.1" xmlns="http://www.w3.org/2000/svg"><path d="M160 384V224c0-35.2 28.8-64 64-64h160V96H224c-70.4 0-128 57.6-128 128v160h64zM640 160h160c35.2 0 64 28.8 64 64v160h64V224c0-70.4-57.6-128-128-128H640v64zM384 864H224c-35.2 0-64-28.8-64-64V640H96v160c0 70.4 57.6 128 128 128h160v-64zM864 640v160c0 35.2-28.8 64-64 64H640v64h160c70.4 0 128-57.6 128-128V640h-64z" /></svg>