<?xml version="1.0" standalone="no"?><!DOCTYPE svg PUBLIC "-//W3C//DTD SVG 1.1//EN" "http://www.w3.org/Graphics/SVG/1.1/DTD/svg11.dtd"><svg t="1644569152470" class="icon" viewBox="0 0 1181 1024" version="1.1" xmlns="http://www.w3.org/2000/svg" p-id="31874" xmlns:xlink="http://www.w3.org/1999/xlink" width="147.625" height="128"><defs><style type="text/css"></style></defs><path d="M1023.941717 1024c1.890316-143.664026-117.357126-297.72479-357.584801-462.33982 0 0-26.385663-20.084609-12.444582-49.620798 92.310438-37.49127 133.503577-115.151758 133.503577-235.895701 0-120.192601-65.767249-222.427198-157.526344-260.391047 24.652873-10.160449 51.196062-15.673871 78.763172-15.673871 130.431813 0 236.289516 123.65818 236.289516 276.064918 0 120.743943-41.193139 198.40443-133.503576 235.895701-14.019845 29.53619 12.444581 49.620798 12.444581 49.620798C1064.110935 726.27521 1183.279614 880.335974 1181.468061 1024h-157.526344z m-96.09107 0H0.02048c-1.811553-143.664026 117.357126-297.72479 357.584801-462.33982 0 0 26.464426-20.084609 12.444581-49.620798-92.310438-37.49127-133.424813-115.151758-133.424813-235.895701C236.625049 123.736943 342.403989 0.078763 472.835802 0.078763c130.431813 0 236.210753 123.65818 236.210753 276.064918 0 119.247443-61.120222 203.208984-151.619106 241.960465-5.828475 12.759634-5.828475 21.187293 5.434659 43.556034 188.795323 112.631336 310.484424 266.849627 365.067302 462.33982z" p-id="31875"></path></svg>